<?xml version="1.0" encoding="utf-8"?>
<!-- Generator: Adobe Illustrator 21.0.1, SVG Export Plug-In . SVG Version: 6.00 Build 0)  -->
<svg version="1.0" id="_x23_Layer_1" xmlns="http://www.w3.org/2000/svg" xmlns:xlink="http://www.w3.org/1999/xlink" x="0px"
	 y="0px" viewBox="0 0 601 107" style="enable-background:new 0 0 601 107;" xml:space="preserve">
<style type="text/css">
	.st0{fill-rule:evenodd;clip-rule:evenodd;}
	.st1{fill-rule:evenodd;clip-rule:evenodd;fill:#B0AFB1;}
	.st2{fill-rule:evenodd;clip-rule:evenodd;fill:#C30B25;}
	.st3{fill-rule:evenodd;clip-rule:evenodd;fill:#243571;}
	.st4{fill-rule:evenodd;clip-rule:evenodd;fill:#FFFFFF;}
</style>
<g>
	<g>
		<path class="st0" d="M251.5,15.9h14.4c4.6,0,7.9,1,9.8,2.9c1.9,1.9,2.3,4.7,1.3,8.4c-1,3.7-3,6.4-6,8.3c-3,1.9-6.8,2.9-11.5,2.9
			h-14.4L251.5,15.9L251.5,15.9z M258.6,21.4L258.6,21.4l-3.1,10.9h4.3c2.3,0,4-0.4,5.2-1.3c1.2-0.9,2.1-2.2,2.7-4.2
			c0.6-1.9,0.5-3.3-0.3-4.2c-0.7-0.9-2.2-1.3-4.5-1.3H258.6z"/>
		<polygon class="st0" points="277.4,38.3 283.8,15.9 307.5,15.9 306,21.4 290.9,21.4 290.1,24.1 302.3,24.1 300.8,29.6 288.6,29.6 
			287.7,32.5 303.5,32.5 301.9,38.3 		"/>
		<polygon class="st0" points="310.4,38.3 315.2,21.6 307,21.6 308.7,15.9 333.6,15.9 332,21.6 323.8,21.6 319.1,38.3 		"/>
		<path class="st0" d="M353.2,15.9c2,0,3.5,0.1,4.6,0.3c1.1,0.2,1.9,0.5,2.5,0.9c0.7,0.5,1.1,1.2,1.3,2c0.2,0.8,0.1,1.8-0.2,2.9
			c-0.4,1.3-1,2.5-2,3.5c-0.9,1-2.1,1.7-3.3,2.2c0.9,0.4,1.4,0.9,1.6,1.5c0.2,0.6,0.2,1.7-0.2,3.2c0,0.2-0.1,0.4-0.2,0.7
			c-0.7,2.9-0.8,4.6-0.2,4.9l-0.1,0.4h-9.7c-0.2-0.5-0.1-1.4,0.3-2.8c0.2-0.8,0.3-1.4,0.4-1.9c0.1-0.8,0-1.4-0.3-1.7
			c-0.4-0.3-1.1-0.5-2.2-0.5h-5.2l-2,6.8h-8.8l6.4-22.4H353.2L353.2,15.9z M342.2,25.6L342.2,25.6h5.1c1.3,0,2.3-0.2,2.9-0.5
			c0.6-0.3,1-0.8,1.3-1.6c0.2-0.7,0.1-1.2-0.3-1.5c-0.4-0.3-1.4-0.4-2.9-0.4h-4.9L342.2,25.6z"/>
		<path class="st0" d="M362.4,27.1c1.1-3.9,3.2-6.8,6.3-8.8c3.1-2,7.1-3,12.1-3c5,0,8.5,1,10.4,3c2,2,2.4,4.9,1.3,8.8
			c-1.1,3.9-3.2,6.8-6.3,8.8c-3.1,2-7.1,3-12.1,3c-5,0-8.5-1-10.4-3C361.7,33.9,361.3,31,362.4,27.1L362.4,27.1z M371.7,27.1
			L371.7,27.1c-0.6,2-0.5,3.4,0.2,4.5c0.7,1,2,1.5,3.8,1.5c1.9,0,3.4-0.5,4.7-1.5c1.3-1,2.2-2.5,2.8-4.5c0.6-2,0.5-3.5-0.2-4.5
			c-0.7-1-2-1.6-3.8-1.6c-1.9,0-3.4,0.5-4.7,1.6C373.2,23.6,372.3,25.2,371.7,27.1z"/>
		<polygon class="st0" points="393,38.3 399.4,15.9 408,15.9 401.6,38.3 		"/>
		<polygon class="st0" points="412.2,38.3 417,21.6 408.9,21.6 410.5,15.9 435.5,15.9 433.8,21.6 425.7,21.6 420.9,38.3 		"/>
		<path class="st0" d="M448.5,15.9h14.4c4.6,0,7.9,1,9.8,2.9c1.9,1.9,2.3,4.7,1.3,8.4c-1,3.7-3,6.4-6,8.3c-3,1.9-6.8,2.9-11.5,2.9
			h-14.4L448.5,15.9L448.5,15.9z M455.6,21.4L455.6,21.4l-3.1,10.9h4.3c2.3,0,4-0.4,5.2-1.3c1.2-0.9,2.1-2.2,2.7-4.2
			c0.6-1.9,0.5-3.3-0.3-4.2c-0.7-0.9-2.2-1.3-4.5-1.3H455.6z"/>
		<polygon class="st0" points="474.4,38.3 480.8,15.9 489.5,15.9 483.1,38.3 		"/>
		<polygon class="st0" points="487.9,38.3 494.3,15.9 518.1,15.9 516.5,21.4 501.5,21.4 500.7,24.1 512.9,24.1 511.3,29.6 
			499.1,29.6 498.3,32.5 514.1,32.5 512.4,38.3 		"/>
		<path class="st0" d="M515.8,31.5l10.5,0c-0.1,0.6,0.2,1.1,0.7,1.4c0.6,0.3,1.5,0.5,2.6,0.5c1.2,0,2.1-0.1,2.7-0.4
			c0.7-0.3,1.1-0.7,1.2-1.2c0.1-0.5,0-0.9-0.4-1.1c-0.4-0.3-1.1-0.5-2.2-0.6l-6.3-0.8c-2.6-0.3-4.4-1-5.5-2.2
			c-1-1.1-1.3-2.6-0.8-4.5c0.7-2.5,2.3-4.3,4.6-5.5c2.4-1.2,5.8-1.7,10.3-1.7c4.7,0,8,0.6,9.9,1.7c1.9,1.2,2.7,2.9,2.1,5.4h-10.1
			c0.1-0.7-0.2-1.2-0.8-1.6c-0.6-0.4-1.6-0.5-3-0.5c-1,0-1.8,0.1-2.4,0.4c-0.6,0.3-1,0.6-1.1,1.1c-0.1,0.4,0,0.8,0.4,1
			c0.4,0.2,1.2,0.4,2.5,0.6l7.6,1.1c2.4,0.4,4,1.1,4.9,2.2c0.9,1.1,1.1,2.5,0.6,4.4c-0.8,2.7-2.6,4.8-5.4,6
			c-2.8,1.3-6.8,1.9-12.1,1.9c-4.2,0-7.2-0.6-9.1-1.9C515.7,35.8,515.1,33.9,515.8,31.5z"/>
		<polygon class="st0" points="545.6,38.3 552,15.9 575.8,15.9 574.2,21.4 559.1,21.4 558.4,24.1 570.6,24.1 569,29.6 556.8,29.6 
			555.9,32.5 571.8,32.5 570.1,38.3 		"/>
		<polygon class="st0" points="572.9,38.3 579.3,15.9 588,15.9 583.3,32.2 597,32.2 595.3,38.3 		"/>
		<polygon class="st0" points="234.4,75.6 240.8,53.1 253.7,53.1 253.6,66.8 261.6,53.1 274.3,53.1 267.9,75.6 259.9,75.6 
			264.9,58.1 254.5,75.6 247.8,75.6 247.5,58.1 242.5,75.6 		"/>
		<polygon class="st0" points="278.5,75.6 283.3,58.8 275.2,58.8 276.8,53.1 301.7,53.1 300.1,58.8 292,58.8 287.2,75.6 		"/>
		<path class="st0" d="M312.9,53.1l-3.1,11c-0.6,2.2-0.8,3.8-0.3,4.7c0.4,0.9,1.5,1.3,3.2,1.3c1.7,0,3-0.4,3.9-1.3
			c0.9-0.9,1.7-2.4,2.3-4.7l3.1-11h8.7l-3.4,11.8c-1.1,3.9-3,6.7-5.6,8.5c-2.6,1.8-6.2,2.7-10.8,2.7c-4.6,0-7.6-0.9-9.3-2.7
			c-1.6-1.8-1.9-4.7-0.8-8.5l3.4-11.8H312.9z"/>
		<path class="st0" d="M339.1,75.6l6.4-22.4h16.8c3.2,0,5.4,0.6,6.8,1.9c1.4,1.3,1.7,3.1,1,5.4c-0.7,2.3-2,4.1-4.1,5.4
			c-2.1,1.3-4.7,1.9-7.9,1.9h-8.1l-2.2,7.9H339.1L339.1,75.6z M357.6,58L357.6,58h-4.8l-1.4,4.8h4.8c1.4,0,2.4-0.2,3.1-0.5
			c0.6-0.4,1.1-1,1.3-1.9c0.3-0.9,0.2-1.5-0.3-1.9C359.9,58.1,359,58,357.6,58z"/>
		<polygon class="st0" points="368.8,75.6 375.2,53.1 398.9,53.1 397.3,58.6 382.3,58.6 381.5,61.3 393.7,61.3 392.1,66.8 
			379.9,66.8 379.1,69.8 394.9,69.8 393.3,75.6 		"/>
		<path class="st0" d="M419.5,53.1c1.9,0,3.5,0.1,4.6,0.3c1.1,0.2,2,0.5,2.5,0.9c0.7,0.5,1.1,1.2,1.3,2c0.2,0.8,0.2,1.8-0.2,2.9
			c-0.4,1.3-1,2.5-2,3.5c-0.9,1-2,1.7-3.3,2.2c0.9,0.4,1.4,0.9,1.6,1.5c0.2,0.6,0.2,1.7-0.2,3.2c0,0.2-0.1,0.4-0.2,0.7
			c-0.7,2.9-0.8,4.6-0.2,4.9l-0.1,0.3h-9.7c-0.2-0.5-0.1-1.4,0.3-2.8c0.2-0.8,0.3-1.4,0.4-1.8c0.1-0.8,0-1.4-0.3-1.7
			c-0.4-0.3-1.1-0.5-2.2-0.5h-5.2l-2,6.8H396l6.4-22.4H419.5L419.5,53.1z M408.5,62.8L408.5,62.8h5.1c1.3,0,2.3-0.2,2.9-0.5
			c0.6-0.3,1-0.8,1.3-1.6c0.2-0.7,0.1-1.2-0.3-1.5c-0.4-0.3-1.4-0.4-2.9-0.4h-4.8L408.5,62.8z"/>
		<path class="st0" d="M441.9,53.1l-3.1,11c-0.6,2.2-0.7,3.8-0.3,4.7c0.4,0.9,1.5,1.3,3.2,1.3c1.7,0,3-0.4,3.9-1.3
			c0.9-0.9,1.7-2.4,2.3-4.7l3.1-11h8.7l-3.4,11.8c-1.1,3.9-3,6.7-5.6,8.5c-2.6,1.8-6.2,2.7-10.8,2.7c-4.6,0-7.6-0.9-9.3-2.7
			c-1.6-1.8-1.9-4.7-0.8-8.5l3.4-11.8H441.9z"/>
	</g>
	<g>
		<path class="st1" d="M132.5,18.2c-6.8,24.4-13.7,48.8-20.5,73.1c-0.4,1.4-0.6,2.8-0.4,4.3c0.2,1.5,0.7,2.8,1.7,4
			c0.9,1.2,2.2,2,3.6,2.5c0.7,0.3,1.4,0.4,2.1,0.6c0.7,0.1,1.5,0.2,2.2,0.2h72.5c0.9,0,1.7,0,2.5-0.2c0.8-0.1,1.6-0.4,2.4-0.7
			c1.6-0.6,3.1-1.5,4.4-2.5c1.3-1,2.6-2.2,3.6-3.6c0.5-0.7,1-1.4,1.4-2.1c0.2-0.4,0.4-0.9,0.6-1.4c0.1-0.3,0.2-0.6,0.3-1
			c8.1-28.6,16.1-57.3,24.2-85.9h-83.3c-1,0-1.9,0-2.9,0.1c-1,0.1-1.9,0.3-2.8,0.6c-1.8,0.6-3.5,1.5-5.1,2.6c-1.5,1.1-2.9,2.5-4,4.1
			C133.8,14.6,133,16.3,132.5,18.2z"/>
		<path class="st2" d="M191.6,99c1.7,0,3-0.1,4.7-0.7c1.5-0.5,2.9-1.4,4.1-2.4c1.2-1,2.3-2.2,3.2-3.5c1-1.5,1.4-2.7,1.8-4.4
			c7.4-26.2,14.7-52.4,22.1-78.7h-78.7c-5.7,0-10.8,3.8-12.3,9.4c-6.5,23-12.9,46.1-19.4,69.1c-0.3,0.9-1,3.6-1.3,4.6
			c-0.4,1.7-0.5,3,0.7,4.5c0.5,0.6,1.2,1.1,1.8,1.5c0.3,0.2,0.7,0.3,1.1,0.4c0.4,0.1,0.8,0.2,1.2,0.2c0.7,0,4,0,4.7,0H191.6z"/>
		<path class="st1" d="M24.9,18.2C18.1,42.5,11.2,66.9,4.4,91.3C4,92.7,3.8,94.1,4,95.6c0.2,1.5,0.7,2.8,1.7,4
			c0.9,1.2,2.2,2,3.6,2.5c0.7,0.3,1.4,0.4,2.1,0.6c0.7,0.1,1.5,0.2,2.2,0.2H86c0.9,0,1.7,0,2.5-0.2c0.8-0.1,1.6-0.4,2.4-0.7
			c1.6-0.6,3.1-1.5,4.4-2.5c1.3-1,2.6-2.2,3.6-3.6c0.5-0.7,1-1.4,1.4-2.1c0.2-0.4,0.4-0.9,0.6-1.4c0.1-0.3,0.2-0.6,0.3-1
			c8.1-28.6,16.1-57.3,24.2-85.9H42.1c-1,0-1.9,0-2.9,0.1c-1,0.1-1.9,0.3-2.8,0.6c-1.8,0.6-3.5,1.5-5.1,2.6c-1.5,1.1-2.9,2.5-4,4.1
			C26.2,14.6,25.4,16.3,24.9,18.2z"/>
		<path class="st3" d="M84,99c1.7,0,3-0.1,4.7-0.7c1.5-0.5,2.9-1.4,4.1-2.4c1.2-1,2.3-2.2,3.2-3.5c1-1.5,1.4-2.7,1.8-4.4
			c7.4-26.2,14.7-52.4,22.1-78.7H41.4c-5.7,0-10.8,3.8-12.3,9.4c-6.5,23-12.9,46.1-19.4,69.1c-0.3,0.9-1,3.6-1.3,4.6
			c-0.4,1.7-0.5,3,0.7,4.5c0.5,0.6,1.1,1.1,1.8,1.5c0.3,0.2,0.7,0.3,1.1,0.4c0.4,0.1,0.8,0.2,1.2,0.2c0.7,0,4,0,4.7,0H84z"/>
		<path class="st1" d="M23.6,87h-7.9c0,0,3.5-13.5,3.9-14.4c0.4-0.9,1-3,4.1-3h26.7c1.4,0,2.8,1.3,2.2,3.7C52,75.6,48.8,87,48.8,87
			h-8l3.6-12.9h-4.6L36.1,87h-7.9l3.6-12.9h-4.6L23.6,87z"/>
		<path class="st1" d="M63.7,82.4h5.9L68.4,87H57.8c-1,0-3-0.5-2.3-3.3c0.7-2.7,2.7-9.6,2.7-9.6h-4.4l1.4-4.5h4.4l0.7-2.4l8.4-2.4
			l-1.2,4.9h16.8l-3.5,12.9h4.6l3.7-12.9H97c0,0-3.7,12.5-4,13.8C92.6,84.7,91.6,87,89,87H75.1c-1.5,0-3.3-0.7-2.4-4
			c0.9-3.3,2.4-9,2.4-9H66L63.7,82.4z"/>
		<path class="st4" d="M55,73.3l0.8-2.8h4.4l0.7-2.7l6.5-1.8l-1.2,4.4h16.8l-3.4,12.9H86l3.7-12.9h5.9c0,0-3.4,11.9-3.7,12.9
			c-0.3,0.9-1,2.7-2.7,2.7H74.8c-0.7,0-1.9-0.4-1.4-2.4c0.5-2.2,2.8-10.4,2.8-10.4h-11l-2.7,10.1h5.8l-0.7,2.7H58
			c-0.8,0-2.2-0.2-1.6-2.3c0.5-2.1,3-10.6,3-10.6L55,73.3z"/>
		<path class="st4" d="M22.9,86.1H17c0,0,3-11.2,3.4-12.5c0.3-1.3,1.1-3,3.3-3h26.2c0.8,0,2.4-0.1,1.9,2.5
			c-0.5,2.6-3.6,13.1-3.6,13.1H42l3.6-12.9h-6.4l-3.7,12.9h-5.9L33,73.2h-6.6L22.9,86.1z"/>
	</g>
</g>
</svg>
